<svg id="Layer_1" data-name="Layer 1" xmlns="http://www.w3.org/2000/svg" viewBox="0 0 548.59 618.89"><defs><style>.cls-1,.cls-2,.cls-4{fill:none;stroke-miterlimit:10;stroke-width:12.85px;}.cls-1{stroke:#f5a46c;}.cls-2{stroke:#9fc2bb;}.cls-3{fill:#f3c765;}.cls-4{stroke:#f3c765;}</style></defs><title>LMPCO_Flower</title><path class="cls-1" d="M157.82,311c-17.59,33.23-9,72.29-9,72.29s30.29,26.12,67.89,26.41c19.51,32.13,57.47,44.76,57.47,44.76s38-12.63,57.47-44.76c37.6-.29,67.9-26.41,67.9-26.41s8.61-39.06-9-72.29c17.59-33.23,9-72.29,9-72.29s-30.3-26.12-67.9-26.4c-19.51-32.14-57.47-44.77-57.47-44.77s-38,12.63-57.47,44.77c-37.6.28-67.89,26.4-67.89,26.4S140.23,277.77,157.82,311Z"/><path class="cls-2" d="M377.62,104.44c-69.07-11.78-103.41,24.1-103.41,24.1s-34.33-35.88-103.41-24.1c0,0,30.65,44.45,103.41,44.45S377.62,104.44,377.62,104.44Z"/><path class="cls-3" d="M274.55,96.14c15.2-47.39,0-84.33,0-84.33S259.35,48.75,274.55,96.14Z"/><path class="cls-2" d="M147.55,118.26c-44.74,53.93-30.84,101.6-30.84,101.6s-48.24,11.8-72.57,77.51c0,0,53.81-4.32,90.19-67.33S147.55,118.26,147.55,118.26Z"/><path class="cls-3" d="M88.82,203.37c-33.44-36.85-73-42.17-73-42.17S40.19,192.84,88.82,203.37Z"/><path class="cls-2" d="M44.48,324.42c24.33,65.71,72.57,77.5,72.57,77.5s-13.9,47.68,30.84,101.61c0,0,23.16-48.77-13.22-111.78S44.48,324.42,44.48,324.42Z"/><path class="cls-3" d="M88.82,417.83c-48.63,10.53-73,42.17-73,42.17S55.38,454.69,88.82,417.83Z"/><path class="cls-2" d="M171.48,516.76c69.07,11.78,103.41-24.1,103.41-24.1s34.33,35.88,103.41,24.1c0,0-30.65-44.45-103.41-44.45S171.48,516.76,171.48,516.76Z"/><path class="cls-3" d="M274.55,525.06c-15.2,47.39,0,84.34,0,84.34S289.75,572.45,274.55,525.06Z"/><path class="cls-2" d="M401.55,502.94c44.74-53.93,30.84-101.6,30.84-101.6s48.24-11.8,72.57-77.51c0,0-53.81,4.32-90.19,67.34S401.55,502.94,401.55,502.94Z"/><path class="cls-3" d="M460.28,417.83c33.44,36.86,73,42.17,73,42.17S508.91,428.36,460.28,417.83Z"/><path class="cls-2" d="M504.62,296.79c-24.33-65.72-72.57-77.51-72.57-77.51s13.9-47.67-30.84-101.61c0,0-23.16,48.77,13.22,111.78S504.62,296.79,504.62,296.79Z"/><path class="cls-3" d="M460.28,203.37c48.63-10.53,73-42.17,73-42.17S493.72,166.52,460.28,203.37Z"/><path class="cls-4" d="M311.3,309.3s-18,8.11-19.35,28.93c-18.07-10.43-34.8,0-34.8,0-1.38-20.82-19.35-28.93-19.35-28.93s18-8.12,19.35-28.94c0,0,16.73,10.43,34.8,0C293.33,301.18,311.3,309.3,311.3,309.3Z"/></svg>