<svg id="Layer_1" data-name="Layer 1" xmlns="http://www.w3.org/2000/svg" viewBox="0 0 215.11 62.35"><defs><style>.cls-1,.cls-2,.cls-4{fill:none;stroke-miterlimit:10;stroke-width:1.23px;}.cls-1{stroke:#f5a46c;}.cls-2{stroke:#9fc2bb;}.cls-3{fill:#f3c765;}.cls-4{stroke:#f3c765;}.cls-5{fill:#4a5869;}</style></defs><title>LPMCO_Inline_Logo_NoTag_OL</title><path class="cls-1" d="M18.32,33a11.33,11.33,0,0,0-.86,6.91A11.35,11.35,0,0,0,24,42.4a11.3,11.3,0,0,0,5.49,4.28,11.3,11.3,0,0,0,5.48-4.28,11.31,11.31,0,0,0,6.49-2.52A11.33,11.33,0,0,0,40.55,33a11.3,11.3,0,0,0,.86-6.9,11.31,11.31,0,0,0-6.49-2.52,11.3,11.3,0,0,0-5.48-4.28A11.3,11.3,0,0,0,24,23.55a11.35,11.35,0,0,0-6.49,2.52A11.3,11.3,0,0,0,18.32,33Z" transform="translate(-4.76 -4.4)"/><path class="cls-2" d="M39.31,13.25c-6.59-1.13-9.87,2.3-9.87,2.3s-3.28-3.43-9.88-2.3c0,0,2.93,4.24,9.88,4.24S39.31,13.25,39.31,13.25Z" transform="translate(-4.76 -4.4)"/><path class="cls-3" d="M29.47,12.46a12.67,12.67,0,0,0,0-8.06A12.67,12.67,0,0,0,29.47,12.46Z" transform="translate(-4.76 -4.4)"/><path class="cls-2" d="M17.34,14.57c-4.27,5.15-2.95,9.7-2.95,9.7s-4.6,1.13-6.93,7.4c0,0,5.14-.41,8.62-6.43S17.34,14.57,17.34,14.57Z" transform="translate(-4.76 -4.4)"/><path class="cls-3" d="M11.73,22.7a12.64,12.64,0,0,0-7-4A12.66,12.66,0,0,0,11.73,22.7Z" transform="translate(-4.76 -4.4)"/><path class="cls-2" d="M7.5,34.26c2.32,6.27,6.93,7.4,6.93,7.4s-1.33,4.55,2.94,9.7c0,0,2.21-4.66-1.26-10.67S7.5,34.26,7.5,34.26Z" transform="translate(-4.76 -4.4)"/><path class="cls-3" d="M11.73,43.18a12.61,12.61,0,0,0-7,4A12.58,12.58,0,0,0,11.73,43.18Z" transform="translate(-4.76 -4.4)"/><path class="cls-2" d="M19.62,52.63c6.6,1.12,9.88-2.31,9.88-2.31s3.28,3.43,9.88,2.31c0,0-2.93-4.25-9.88-4.25S19.62,52.63,19.62,52.63Z" transform="translate(-4.76 -4.4)"/><path class="cls-3" d="M29.47,53.42a12.64,12.64,0,0,0,0,8A12.64,12.64,0,0,0,29.47,53.42Z" transform="translate(-4.76 -4.4)"/><path class="cls-2" d="M41.6,51.31c4.27-5.15,2.94-9.71,2.94-9.71s4.61-1.12,6.93-7.4c0,0-5.14.41-8.61,6.43S41.6,51.31,41.6,51.31Z" transform="translate(-4.76 -4.4)"/><path class="cls-3" d="M47.21,43.18a12.58,12.58,0,0,0,7,4A12.61,12.61,0,0,0,47.21,43.18Z" transform="translate(-4.76 -4.4)"/><path class="cls-2" d="M51.44,31.62c-2.32-6.28-6.93-7.4-6.93-7.4s1.33-4.56-2.94-9.71c0,0-2.22,4.66,1.26,10.68S51.44,31.62,51.44,31.62Z" transform="translate(-4.76 -4.4)"/><path class="cls-3" d="M47.21,22.7a12.66,12.66,0,0,0,7-4A12.64,12.64,0,0,0,47.21,22.7Z" transform="translate(-4.76 -4.4)"/><path class="cls-4" d="M33,32.81a3.4,3.4,0,0,0-1.85,2.77,3.36,3.36,0,0,0-3.32,0A3.4,3.4,0,0,0,26,32.81a3.37,3.37,0,0,0,1.85-2.76,3.39,3.39,0,0,0,3.32,0A3.37,3.37,0,0,0,33,32.81Z" transform="translate(-4.76 -4.4)"/><path class="cls-5" d="M62.12,19.48a.23.23,0,0,1,.24-.25.24.24,0,0,1,.25.25V36.34h7.94a.25.25,0,0,1,0,.5H62.36a.23.23,0,0,1-.24-.25Z" transform="translate(-4.76 -4.4)"/><path class="cls-5" d="M72.9,19.62a.23.23,0,0,1,.25-.24.23.23,0,0,1,.24.24V21a.23.23,0,0,1-.24.25A.24.24,0,0,1,72.9,21Zm0,4.55a.23.23,0,0,1,.25-.24.23.23,0,0,1,.24.24V36.79a.23.23,0,0,1-.24.25.24.24,0,0,1-.25-.25Z" transform="translate(-4.76 -4.4)"/><path class="cls-5" d="M76,24.62a.24.24,0,0,1-.25-.25.23.23,0,0,1,.25-.24h2.6V20.32a.23.23,0,0,1,.24-.25.24.24,0,0,1,.25.25v3.81h4.35a.23.23,0,0,1,.25.24.24.24,0,0,1-.25.25H79.08v9a2.86,2.86,0,0,0,2.87,3A3,3,0,0,0,83.78,36c.13-.08.25-.08.32,0a.24.24,0,0,1-.07.34,3.64,3.64,0,0,1-2.18.75,3.32,3.32,0,0,1-3.26-3.52v-9Z" transform="translate(-4.76 -4.4)"/><path class="cls-5" d="M85.63,24.62a.23.23,0,0,1-.24-.25.23.23,0,0,1,.24-.24h2.6V20.32a.25.25,0,0,1,.5,0v3.81h4.35a.23.23,0,0,1,.25.24.24.24,0,0,1-.25.25H88.73v9a2.86,2.86,0,0,0,2.87,3A3.06,3.06,0,0,0,93.43,36a.2.2,0,0,1,.32,0,.24.24,0,0,1-.08.34,3.61,3.61,0,0,1-2.17.75,3.33,3.33,0,0,1-3.27-3.52v-9Z" transform="translate(-4.76 -4.4)"/><path class="cls-5" d="M99.78,36.89c-.07.15-.2.15-.35.1a4.87,4.87,0,0,1-3.16-4.9V18.83a.23.23,0,0,1,.25-.24.23.23,0,0,1,.24.24V32.07a4.52,4.52,0,0,0,2.9,4.52A.22.22,0,0,1,99.78,36.89Z" transform="translate(-4.76 -4.4)"/><path class="cls-5" d="M101.91,32.68c0,2.53,1.43,4,3.58,4a3.34,3.34,0,0,0,3.59-3.26v-.47a.24.24,0,0,1,.25-.25.23.23,0,0,1,.24.25v.49a3.91,3.91,0,0,1-4.08,3.74c-2.42,0-4.08-1.69-4.08-4.33V28.16c0-2.65,1.66-4.33,4.08-4.33a3.77,3.77,0,0,1,4.08,3.44,3.16,3.16,0,0,1-2.72,3.31L103,31.5c-.59.14-1.13.37-1.13.81Zm3.58-8.36c-2.15,0-3.58,1.44-3.58,4v3.24a2.11,2.11,0,0,1,1-.47l3.81-.94a2.65,2.65,0,0,0,2.35-2.82A3.26,3.26,0,0,0,105.49,24.32Z" transform="translate(-4.76 -4.4)"/><path class="cls-5" d="M118.35,19.67a.23.23,0,0,1,.25-.24h4.28c3,0,4.82,1.8,4.82,5s-1.85,5-4.82,5h-4v7.32a.25.25,0,0,1-.5,0Zm4.5.25h-4v9h4c2.85,0,4.36-1.58,4.36-4.52S125.7,19.92,122.85,19.92Z" transform="translate(-4.76 -4.4)"/><path class="cls-5" d="M137.89,25.81a.27.27,0,0,1-.35,0,3.48,3.48,0,0,0-3-1.46c-2,0-3.51,1.34-3.51,3.86v8.61a.25.25,0,0,1-.5,0V28.06a3.89,3.89,0,0,1,4-4.23,4,4,0,0,1,3.36,1.63A.22.22,0,0,1,137.89,25.81Z" transform="translate(-4.76 -4.4)"/><path class="cls-5" d="M148,32.81a4,4,0,0,1-4.09,4.33c-2.42,0-4.08-1.69-4.08-4.33V28.16c0-2.65,1.66-4.33,4.08-4.33S148,25.51,148,28.16Zm-.5-4.53c0-2.52-1.43-4-3.59-4s-3.58,1.44-3.58,4v4.4c0,2.53,1.43,4,3.58,4s3.59-1.43,3.59-4Z" transform="translate(-4.76 -4.4)"/><path class="cls-5" d="M151.22,37.31V24.17a.23.23,0,0,1,.25-.24.23.23,0,0,1,.24.24V37.41a4.91,4.91,0,0,1-3.14,4.92.24.24,0,0,1-.32-.17.26.26,0,0,1,.17-.3A4.49,4.49,0,0,0,151.22,37.31Zm0-17.69a.23.23,0,0,1,.25-.24.23.23,0,0,1,.24.24V21a.23.23,0,0,1-.24.25.24.24,0,0,1-.25-.25Z" transform="translate(-4.76 -4.4)"/><path class="cls-5" d="M155.42,32.68c0,2.53,1.44,4,3.59,4a3.34,3.34,0,0,0,3.59-3.26v-.47a.23.23,0,0,1,.24-.25.24.24,0,0,1,.25.25v.49A3.91,3.91,0,0,1,159,37.14c-2.43,0-4.08-1.69-4.08-4.33V28.16c0-2.65,1.65-4.33,4.08-4.33a3.77,3.77,0,0,1,4.08,3.44,3.17,3.17,0,0,1-2.72,3.31l-3.81.92c-.59.14-1.14.37-1.14.81ZM159,24.32c-2.15,0-3.59,1.44-3.59,4v3.24a2.2,2.2,0,0,1,1-.47l3.81-.94a2.66,2.66,0,0,0,2.35-2.82A3.26,3.26,0,0,0,159,24.32Z" transform="translate(-4.76 -4.4)"/><path class="cls-5" d="M173.6,33.38v-.47a.24.24,0,0,1,.25-.25.23.23,0,0,1,.24.25v.49A3.91,3.91,0,0,1,170,37.14c-2.42,0-4.08-1.69-4.08-4.33V28.16c0-2.65,1.66-4.33,4.08-4.33a3.91,3.91,0,0,1,4.08,3.73v.5a.23.23,0,0,1-.24.25.24.24,0,0,1-.25-.25v-.47A3.34,3.34,0,0,0,170,24.32c-2.15,0-3.58,1.44-3.58,4v4.4c0,2.53,1.43,4,3.58,4A3.34,3.34,0,0,0,173.6,33.38Z" transform="translate(-4.76 -4.4)"/><path class="cls-5" d="M176.32,24.62a.24.24,0,0,1-.25-.25.23.23,0,0,1,.25-.24h2.6V20.32a.23.23,0,0,1,.24-.25.24.24,0,0,1,.25.25v3.81h4.35a.23.23,0,0,1,.25.24.24.24,0,0,1-.25.25h-4.35v9a2.86,2.86,0,0,0,2.87,3,3,3,0,0,0,1.83-.64c.12-.08.25-.08.32,0a.24.24,0,0,1-.07.34,3.64,3.64,0,0,1-2.18.75,3.32,3.32,0,0,1-3.26-3.52v-9Z" transform="translate(-4.76 -4.4)"/><path class="cls-5" d="M70.72,61.16V48.89c0-3.14-1.63-4.9-4-4.9s-4.06,1.76-4.06,4.9V61.16a.24.24,0,0,1-.25.25.23.23,0,0,1-.24-.25V48.91c0-3.53,2-5.41,4.55-5.41A4.31,4.31,0,0,1,71,46.91a4.33,4.33,0,0,1,4.31-3.41c2.57,0,4.55,1.88,4.55,5.41V61.16a.25.25,0,1,1-.5,0V48.89c0-3.14-1.63-4.9-4-4.9s-4.06,1.76-4.06,4.9V61.16a.25.25,0,0,1-.5,0Z" transform="translate(-4.76 -4.4)"/><path class="cls-5" d="M91,52.65c0-2.52-1.43-4-3.58-4A3.34,3.34,0,0,0,83.78,52v.47a.23.23,0,0,1-.25.24.23.23,0,0,1-.24-.24v-.5a3.9,3.9,0,0,1,4.08-3.73c2.42,0,4.08,1.68,4.08,4.33v4.65a4,4,0,0,1-4.08,4.32,3.77,3.77,0,0,1-4.08-3.43A3.17,3.17,0,0,1,86,54.75l3.81-.91c.59-.15,1.13-.38,1.13-.82ZM87.37,61c2.15,0,3.58-1.44,3.58-4V53.81a2.11,2.11,0,0,1-1,.47l-3.81.94A2.65,2.65,0,0,0,83.78,58C83.78,59.13,84.74,61,87.37,61Z" transform="translate(-4.76 -4.4)"/><path class="cls-5" d="M102.7,52.53v8.63a.25.25,0,1,1-.5,0V52.65c0-2.52-1.43-4-3.58-4S95,50.13,95,52.65v8.51a.24.24,0,0,1-.25.25.23.23,0,0,1-.24-.25V52.53c0-2.65,1.65-4.33,4.08-4.33S102.7,49.88,102.7,52.53Z" transform="translate(-4.76 -4.4)"/><path class="cls-5" d="M113.46,52.65c0-2.52-1.44-4-3.59-4A3.34,3.34,0,0,0,106.28,52v.47a.23.23,0,0,1-.24.24.23.23,0,0,1-.25-.24v-.5a3.9,3.9,0,0,1,4.08-3.73c2.42,0,4.08,1.68,4.08,4.33v4.65a4,4,0,0,1-4.08,4.32,3.77,3.77,0,0,1-4.08-3.43,3.18,3.18,0,0,1,2.72-3.32l3.81-.91c.59-.15,1.14-.38,1.14-.82ZM109.87,61c2.15,0,3.59-1.44,3.59-4V53.81a2.2,2.2,0,0,1-1,.47l-3.81.94A2.65,2.65,0,0,0,106.28,58,3.26,3.26,0,0,0,109.87,61Z" transform="translate(-4.76 -4.4)"/><path class="cls-5" d="M120.63,66.25a3.56,3.56,0,0,0,3.83-3.93v-3a3.7,3.7,0,0,1-3.58,2.2,4,4,0,0,1-4.09-4.32V52.53c0-2.65,1.66-4.33,4.09-4.33S125,49.88,125,52.53v9.89a4.06,4.06,0,0,1-4.33,4.33,5.08,5.08,0,0,1-3-1,.25.25,0,0,1-.07-.37.23.23,0,0,1,.34-.08A4.65,4.65,0,0,0,120.63,66.25Zm-3.34-9.2c0,2.52,1.43,4,3.59,4s3.58-1.41,3.58-4v-4.4c0-2.52-1.43-4-3.58-4s-3.59,1.44-3.59,4Z" transform="translate(-4.76 -4.4)"/><path class="cls-5" d="M128.54,57.05c0,2.52,1.44,4,3.59,4a3.34,3.34,0,0,0,3.58-3.27v-.47a.25.25,0,0,1,.5,0v.5a3.9,3.9,0,0,1-4.08,3.73c-2.43,0-4.08-1.68-4.08-4.32V52.53c0-2.65,1.65-4.33,4.08-4.33a3.77,3.77,0,0,1,4.08,3.43A3.18,3.18,0,0,1,133.49,55l-3.81.91c-.59.15-1.14.38-1.14.82Zm3.59-8.36c-2.15,0-3.59,1.44-3.59,4v3.24a2.16,2.16,0,0,1,1-.47l3.8-.94a2.65,2.65,0,0,0,2.35-2.82A3.25,3.25,0,0,0,132.13,48.69Z" transform="translate(-4.76 -4.4)"/><path class="cls-5" d="M146.17,61.16V52.53c0-2.35-1.23-3.84-3.19-3.84s-3.19,1.53-3.19,4v8.51a.23.23,0,0,1-.24.25.24.24,0,0,1-.25-.25V52.53c0-2.55,1.41-4.33,3.68-4.33a3.42,3.42,0,0,1,3.44,2.72,3.44,3.44,0,0,1,3.44-2.72c2.28,0,3.69,1.78,3.69,4.33v8.63a.25.25,0,0,1-.5,0V52.65c0-2.43-1.19-4-3.19-4s-3.19,1.49-3.19,3.84v8.63a.25.25,0,0,1-.5,0Z" transform="translate(-4.76 -4.4)"/><path class="cls-5" d="M157.13,57.05c0,2.52,1.43,4,3.59,4a3.34,3.34,0,0,0,3.58-3.27v-.47a.25.25,0,0,1,.5,0v.5a3.9,3.9,0,0,1-4.08,3.73,4,4,0,0,1-4.09-4.32V52.53c0-2.65,1.66-4.33,4.09-4.33a3.78,3.78,0,0,1,4.08,3.43A3.18,3.18,0,0,1,162.08,55l-3.81.91c-.6.15-1.14.38-1.14.82Zm3.59-8.36c-2.16,0-3.59,1.44-3.59,4v3.24a2.11,2.11,0,0,1,1-.47l3.81-.94a2.65,2.65,0,0,0,2.35-2.82A3.25,3.25,0,0,0,160.72,48.69Z" transform="translate(-4.76 -4.4)"/><path class="cls-5" d="M176.05,52.53v8.63a.25.25,0,0,1-.5,0V52.65c0-2.52-1.43-4-3.58-4s-3.59,1.44-3.59,4v8.51a.24.24,0,0,1-.25.25.23.23,0,0,1-.24-.25V52.53c0-2.65,1.65-4.33,4.08-4.33S176.05,49.88,176.05,52.53Z" transform="translate(-4.76 -4.4)"/><path class="cls-5" d="M178.52,49a.25.25,0,0,1,0-.5h2.6V44.68a.23.23,0,0,1,.24-.24.23.23,0,0,1,.25.24v3.81H186a.25.25,0,0,1,0,.5h-4.36v9a2.86,2.86,0,0,0,2.87,3,3,3,0,0,0,1.83-.64c.13-.08.25-.08.32.05a.24.24,0,0,1-.07.34,3.63,3.63,0,0,1-2.18.74A3.31,3.31,0,0,1,181.12,58V49Z" transform="translate(-4.76 -4.4)"/><path class="cls-5" d="M194.47,48.91a5.07,5.07,0,0,1,5.22-5.41,4.92,4.92,0,0,1,5.22,5.17v.47a.25.25,0,0,1-.5,0v-.5A4.4,4.4,0,0,0,199.69,44a4.62,4.62,0,0,0-4.72,4.9v7.22a4.62,4.62,0,0,0,4.72,4.9,4.4,4.4,0,0,0,4.72-4.65v-.5a.25.25,0,0,1,.5,0v.47a4.92,4.92,0,0,1-5.22,5.17,5.07,5.07,0,0,1-5.22-5.41Z" transform="translate(-4.76 -4.4)"/><path class="cls-5" d="M216.16,57.18a4.09,4.09,0,1,1-8.16,0V52.53c0-2.65,1.66-4.33,4.08-4.33s4.08,1.68,4.08,4.33Zm-.49-4.53c0-2.52-1.44-4-3.59-4s-3.59,1.44-3.59,4v4.4c0,2.52,1.44,4,3.59,4s3.59-1.44,3.59-4Z" transform="translate(-4.76 -4.4)"/><path class="cls-3" d="M219.37,59.43a.25.25,0,0,1,.5,0v1.83a.25.25,0,0,1-.5,0Z" transform="translate(-4.76 -4.4)"/></svg>